<?xml version="1.0" encoding="UTF-8"?>
<!DOCTYPE svg PUBLIC "-//W3C//DTD SVG 1.1//EN" "http://www.w3.org/Graphics/SVG/1.1/DTD/svg11.dtd">
<svg xmlns="http://www.w3.org/2000/svg" version="1.1" width="640px" height="640px" style="shape-rendering:geometricPrecision; text-rendering:geometricPrecision; image-rendering:optimizeQuality; fill-rule:evenodd; clip-rule:evenodd" xmlns:xlink="http://www.w3.org/1999/xlink">
<g><path style="opacity:1" fill="#497b93" d="M 192.5,149.5 C 192.039,151.55 191.372,153.55 190.5,155.5C 180.188,156.499 169.855,156.832 159.5,156.5C 168.675,155.833 178.009,155.167 187.5,154.5C 187.709,153.914 188.043,153.414 188.5,153C 186.422,153.9 184.089,154.4 181.5,154.5C 178.476,154.482 175.81,153.482 173.5,151.5C 169.167,153.167 167.833,151.833 169.5,147.5C 168.5,146.667 167.5,145.833 166.5,145C 167.673,141.89 167.173,141.723 165,144.5C 163.846,143.257 162.512,142.257 161,141.5C 159.783,142.386 158.449,143.386 157,144.5C 156.511,142.396 155.345,142.062 153.5,143.5C 151.5,143 149.5,142.5 147.5,142C 148.622,140.387 148.122,139.22 146,138.5C 144.203,141.096 142.869,140.763 142,137.5C 140.956,138.623 140.29,139.956 140,141.5C 139.196,139.117 138.029,136.95 136.5,135C 137.711,134.107 137.711,133.274 136.5,132.5C 135.5,133.167 134.5,133.833 133.5,134.5C 132.24,132.647 132.24,130.814 133.5,129C 132.906,128.536 132.239,128.369 131.5,128.5C 133.509,126.935 135.843,125.935 138.5,125.5C 140.103,126.677 141.436,126.511 142.5,125C 145.332,124.788 147.998,124.621 150.5,124.5C 153.131,126.005 152.797,126.671 149.5,126.5C 149.351,127.552 149.517,128.552 150,129.5C 151.805,128.59 153.638,127.59 155.5,126.5C 156.386,127.325 156.719,128.325 156.5,129.5C 158.685,129.888 160.518,130.888 162,132.5C 163.584,132.012 164.751,131.012 165.5,129.5C 165.94,130.698 166.273,131.865 166.5,133C 165.552,133.483 164.552,133.649 163.5,133.5C 163.351,134.552 163.517,135.552 164,136.5C 164.333,136.167 164.667,135.833 165,135.5C 167.704,137.5 169.704,139.5 171,141.5C 172.221,140.728 173.221,139.728 174,138.5C 174.333,138.833 174.667,139.167 175,139.5C 175.887,136.292 177.553,136.292 180,139.5C 180.333,138.833 180.667,138.167 181,137.5C 182,138.5 183,139.5 184,140.5C 184.93,138.034 185.763,138.201 186.5,141C 186.095,141.945 185.428,142.612 184.5,143C 185.833,143.667 187.167,144.333 188.5,145C 187.346,145.914 187.513,146.747 189,147.5C 191.531,142.448 192.698,143.115 192.5,149.5 Z"/></g>
<g><path style="opacity:1" fill="#4b8291" d="M 192.5,149.5 C 192.698,143.115 191.531,142.448 189,147.5C 187.513,146.747 187.346,145.914 188.5,145C 187.167,144.333 185.833,143.667 184.5,143C 185.428,142.612 186.095,141.945 186.5,141C 185.763,138.201 184.93,138.034 184,140.5C 183,139.5 182,138.5 181,137.5C 180.667,138.167 180.333,138.833 180,139.5C 177.553,136.292 175.887,136.292 175,139.5C 174.667,139.167 174.333,138.833 174,138.5C 173.221,139.728 172.221,140.728 171,141.5C 169.704,139.5 167.704,137.5 165,135.5C 164.667,135.833 164.333,136.167 164,136.5C 163.517,135.552 163.351,134.552 163.5,133.5C 164.552,133.649 165.552,133.483 166.5,133C 166.273,131.865 165.94,130.698 165.5,129.5C 164.751,131.012 163.584,132.012 162,132.5C 160.518,130.888 158.685,129.888 156.5,129.5C 156.719,128.325 156.386,127.325 155.5,126.5C 153.638,127.59 151.805,128.59 150,129.5C 149.517,128.552 149.351,127.552 149.5,126.5C 152.797,126.671 153.131,126.005 150.5,124.5C 147.998,124.621 145.332,124.788 142.5,125C 141.436,126.511 140.103,126.677 138.5,125.5C 141.906,123.891 145.573,122.724 149.5,122C 172.364,121.818 195.197,121.318 218,120.5C 218.5,120.833 219,121.167 219.5,121.5C 207.066,127.599 198.066,136.932 192.5,149.5 Z"/></g>
<g><path style="opacity:1" fill="#416d92" d="M 151.5,158.5 C 147.068,160.889 142.735,163.555 138.5,166.5C 135.902,167.772 133.402,168.439 131,168.5C 127.922,166.132 128.422,164.299 132.5,163C 130.04,161.542 127.873,159.709 126,157.5C 125.667,157.833 125.333,158.167 125,158.5C 122.575,156.187 119.742,154.52 116.5,153.5C 117.262,153.089 118.262,152.923 119.5,153C 118.713,149.781 117.88,146.281 117,142.5C 115.644,143.38 114.144,143.714 112.5,143.5C 114.167,141.167 116.167,139.167 118.5,137.5C 120.441,137.131 122.275,136.464 124,135.5C 124.862,137.087 125.529,138.754 126,140.5C 126.333,140.167 126.667,139.833 127,139.5C 129.254,145.256 133.42,148.59 139.5,149.5C 140.936,150.934 142.602,152.1 144.5,153C 144.167,153.333 143.833,153.667 143.5,154C 145.676,154.163 147.509,154.996 149,156.5C 152.123,154.902 152.956,155.569 151.5,158.5 Z"/></g>
<g><path style="opacity:1" fill="#6ab57a" d="M 415.5,121.5 C 416.146,123.85 417.313,125.184 419,125.5C 423.576,125.259 428.243,124.592 433,123.5C 435.508,123.152 438.008,123.819 440.5,125.5C 441.086,125.291 441.586,124.957 442,124.5C 442.923,125.759 443.757,127.092 444.5,128.5C 445.192,127.975 445.692,127.308 446,126.5C 448.023,128.013 447.856,129.346 445.5,130.5C 446.853,131.524 447.52,132.857 447.5,134.5C 446.325,134.281 445.325,134.614 444.5,135.5C 446.624,137.121 448.624,138.954 450.5,141C 454.277,141.381 454.277,140.714 450.5,139C 452.24,137.173 453.907,137.34 455.5,139.5C 456.167,138.833 456.833,138.167 457.5,137.5C 460.241,139.953 463.075,142.286 466,144.5C 466.333,146.167 466.667,147.833 467,149.5C 468.333,146.833 469.667,146.833 471,149.5C 471.5,150.5 472,151.5 472.5,152.5C 471.313,152.554 469.98,152.887 468.5,153.5C 468.553,154.847 468.553,156.18 468.5,157.5C 453.865,156.716 439.198,156.216 424.5,156C 419.525,140.689 409.858,129.356 395.5,122C 402.158,121.5 408.825,121.334 415.5,121.5 Z"/></g>
<g><path style="opacity:1" fill="#6bbe6f" d="M 443.5,121.5 C 453.172,121.334 462.839,121.5 472.5,122C 480.131,123.041 487.131,125.541 493.5,129.5C 492.781,131.091 491.781,132.591 490.5,134C 493.718,134.982 495.552,137.148 496,140.5C 496.414,140.043 496.914,139.709 497.5,139.5C 498.427,141.113 499.261,142.779 500,144.5C 500.308,143.692 500.808,143.025 501.5,142.5C 502.429,143.689 502.762,145.022 502.5,146.5C 503.833,146.5 505.167,146.5 506.5,146.5C 506.357,150.509 506.857,154.509 508,158.5C 509.744,157.351 509.911,156.017 508.5,154.5C 508.846,153.304 509.346,153.304 510,154.5C 510.101,157.7 510.768,160.7 512,163.5C 512.333,162.833 512.667,162.167 513,161.5C 514.737,164.23 515.737,166.896 516,169.5C 516.667,168.833 517.333,168.167 518,167.5C 518.333,171.833 518.667,176.167 519,180.5C 519.333,180.167 519.667,179.833 520,179.5C 521.113,180.305 522.279,180.972 523.5,181.5C 523.666,187.509 523.499,193.509 523,199.5C 522.3,201.032 521.134,202.032 519.5,202.5C 518.198,197.615 518.198,192.782 519.5,188C 517.706,186.319 517.206,184.486 518,182.5C 516.784,184.962 516.118,187.629 516,190.5C 515.667,190.167 515.333,189.833 515,189.5C 514.828,184.798 514.328,180.132 513.5,175.5C 513.123,180.646 512.623,185.979 512,191.5C 510.505,189.89 510.339,188.224 511.5,186.5C 509.938,183.86 508.272,181.36 506.5,179C 507.802,177.077 507.635,175.243 506,173.5C 505.369,174.872 504.702,176.205 504,177.5C 499.445,170.937 494.112,164.937 488,159.5C 487.085,160.328 486.419,161.328 486,162.5C 484.829,161.107 483.329,160.273 481.5,160C 483.39,158.922 484.39,157.255 484.5,155C 484.409,151.864 484.076,148.697 483.5,145.5C 481.876,145.36 480.71,146.027 480,147.5C 479.097,146.299 477.931,145.465 476.5,145C 475.167,144.333 475.167,143.667 476.5,143C 474.275,142.439 472.275,141.439 470.5,140C 471.328,139.085 472.328,138.419 473.5,138C 472.251,136.176 471.085,136.343 470,138.5C 465.305,135.471 461.639,131.471 459,126.5C 457.796,127.471 457.296,128.471 457.5,129.5C 456.572,127.665 455.406,127.332 454,128.5C 452.127,125.395 449.46,123.395 446,122.5C 444.841,123.566 444.008,123.233 443.5,121.5 Z"/></g>
<g><path style="opacity:1" fill="#3f6893" d="M 138.5,166.5 C 136.154,169.871 133.821,173.204 131.5,176.5C 131.565,176.062 131.399,175.728 131,175.5C 130.085,176.328 129.419,177.328 129,178.5C 128.572,175.927 128.906,173.594 130,171.5C 128.493,172.505 127.327,173.838 126.5,175.5C 125.304,175.154 125.304,174.654 126.5,174C 125.421,173.044 124.255,172.211 123,171.5C 122.493,168.766 121.993,166.433 121.5,164.5C 120.692,164.808 120.025,165.308 119.5,166C 120.934,168.949 120.768,171.782 119,174.5C 118.845,172.144 118.845,169.811 119,167.5C 118.667,167.833 118.333,168.167 118,168.5C 116.509,166.996 114.676,166.163 112.5,166C 111.874,165.25 111.374,164.416 111,163.5C 110.692,164.308 110.192,164.975 109.5,165.5C 108.28,164.289 107.113,164.289 106,165.5C 105.46,163.865 105.96,162.532 107.5,161.5C 107.192,160.692 106.692,160.025 106,159.5C 103.425,161.564 102.925,164.064 104.5,167C 103.207,167.49 101.873,167.657 100.5,167.5C 102.397,158.372 106.397,150.372 112.5,143.5C 114.144,143.714 115.644,143.38 117,142.5C 117.88,146.281 118.713,149.781 119.5,153C 118.262,152.923 117.262,153.089 116.5,153.5C 119.742,154.52 122.575,156.187 125,158.5C 125.333,158.167 125.667,157.833 126,157.5C 127.873,159.709 130.04,161.542 132.5,163C 128.422,164.299 127.922,166.132 131,168.5C 133.402,168.439 135.902,167.772 138.5,166.5 Z"/></g>
<g><path style="opacity:1" fill="#457795" d="M 131.5,128.5 C 132.239,128.369 132.906,128.536 133.5,129C 132.24,130.814 132.24,132.647 133.5,134.5C 134.5,133.833 135.5,133.167 136.5,132.5C 137.711,133.274 137.711,134.107 136.5,135C 138.029,136.95 139.196,139.117 140,141.5C 140.29,139.956 140.956,138.623 142,137.5C 142.869,140.763 144.203,141.096 146,138.5C 148.122,139.22 148.622,140.387 147.5,142C 149.5,142.5 151.5,143 153.5,143.5C 155.345,142.062 156.511,142.396 157,144.5C 158.449,143.386 159.783,142.386 161,141.5C 162.512,142.257 163.846,143.257 165,144.5C 167.173,141.723 167.673,141.89 166.5,145C 167.5,145.833 168.5,146.667 169.5,147.5C 167.833,151.833 169.167,153.167 173.5,151.5C 175.81,153.482 178.476,154.482 181.5,154.5C 184.089,154.4 186.422,153.9 188.5,153C 188.043,153.414 187.709,153.914 187.5,154.5C 178.009,155.167 168.675,155.833 159.5,156.5C 156.833,157.167 154.167,157.833 151.5,158.5C 152.956,155.569 152.123,154.902 149,156.5C 147.509,154.996 145.676,154.163 143.5,154C 143.833,153.667 144.167,153.333 144.5,153C 142.602,152.1 140.936,150.934 139.5,149.5C 133.42,148.59 129.254,145.256 127,139.5C 126.667,139.833 126.333,140.167 126,140.5C 125.529,138.754 124.862,137.087 124,135.5C 122.275,136.464 120.441,137.131 118.5,137.5C 122.302,133.763 126.635,130.763 131.5,128.5 Z"/></g>
<g><path style="opacity:1" fill="#6bc46b" d="M 493.5,129.5 C 510.445,139.377 520.445,154.044 523.5,173.5C 523.5,176.167 523.5,178.833 523.5,181.5C 522.279,180.972 521.113,180.305 520,179.5C 519.667,179.833 519.333,180.167 519,180.5C 518.667,176.167 518.333,171.833 518,167.5C 517.333,168.167 516.667,168.833 516,169.5C 515.737,166.896 514.737,164.23 513,161.5C 512.667,162.167 512.333,162.833 512,163.5C 510.768,160.7 510.101,157.7 510,154.5C 509.346,153.304 508.846,153.304 508.5,154.5C 509.911,156.017 509.744,157.351 508,158.5C 506.857,154.509 506.357,150.509 506.5,146.5C 505.167,146.5 503.833,146.5 502.5,146.5C 502.762,145.022 502.429,143.689 501.5,142.5C 500.808,143.025 500.308,143.692 500,144.5C 499.261,142.779 498.427,141.113 497.5,139.5C 496.914,139.709 496.414,140.043 496,140.5C 495.552,137.148 493.718,134.982 490.5,134C 491.781,132.591 492.781,131.091 493.5,129.5 Z"/></g>
<g><path style="opacity:1" fill="#e1aa72" d="M 231.5,150.5 C 292.194,148.218 342.361,169.884 382,215.5C 388.325,223.816 392.158,233.149 393.5,243.5C 394.253,249.023 391.919,252.023 386.5,252.5C 309.471,238.329 232.471,224.162 155.5,210C 153.051,208.137 152.051,205.637 152.5,202.5C 154.578,191.226 160.245,182.06 169.5,175C 187.987,161.228 208.653,153.062 231.5,150.5 Z"/></g>
<g><path style="opacity:1" fill="#d59555" d="M 352.5,158.5 C 373.781,171.593 391.947,188.26 407,208.5C 416.411,221.658 421.577,236.325 422.5,252.5C 417.547,253.329 412.547,253.663 407.5,253.5C 407.542,240.791 404.042,229.125 397,218.5C 378.205,191.369 353.705,171.202 323.5,158C 333.201,157.245 342.868,157.412 352.5,158.5 Z"/></g>
<g><path style="opacity:1" fill="#466898" d="M 131.5,176.5 C 130.572,179.454 129.739,182.454 129,185.5C 128.5,210.498 128.333,235.498 128.5,260.5C 127.532,258.393 127.198,256.059 127.5,253.5C 127.5,242.833 127.5,232.167 127.5,221.5C 127.5,211.833 127.5,202.167 127.5,192.5C 127.5,190.5 127.5,188.5 127.5,186.5C 123.431,185.581 121.264,182.914 121,178.5C 120.667,179.5 120.333,180.5 120,181.5C 118.172,179.919 116.172,178.585 114,177.5C 113.749,179.433 113.249,181.266 112.5,183C 114.113,183.089 115.28,182.255 116,180.5C 117.267,181.91 117.267,183.576 116,185.5C 113.56,186.363 111.393,186.363 109.5,185.5C 107.578,184.04 106.911,182.373 107.5,180.5C 106.063,183.044 104.563,183.044 103,180.5C 103.744,179.793 104.244,178.459 104.5,176.5C 102.5,176.167 100.5,175.833 98.5,175.5C 98.5651,172.572 99.2318,169.905 100.5,167.5C 101.873,167.657 103.207,167.49 104.5,167C 102.925,164.064 103.425,161.564 106,159.5C 106.692,160.025 107.192,160.692 107.5,161.5C 105.96,162.532 105.46,163.865 106,165.5C 107.113,164.289 108.28,164.289 109.5,165.5C 110.192,164.975 110.692,164.308 111,163.5C 111.374,164.416 111.874,165.25 112.5,166C 114.676,166.163 116.509,166.996 118,168.5C 118.333,168.167 118.667,167.833 119,167.5C 118.845,169.811 118.845,172.144 119,174.5C 120.768,171.782 120.934,168.949 119.5,166C 120.025,165.308 120.692,164.808 121.5,164.5C 121.993,166.433 122.493,168.766 123,171.5C 124.255,172.211 125.421,173.044 126.5,174C 125.304,174.654 125.304,175.154 126.5,175.5C 127.327,173.838 128.493,172.505 130,171.5C 128.906,173.594 128.572,175.927 129,178.5C 129.419,177.328 130.085,176.328 131,175.5C 131.399,175.728 131.565,176.062 131.5,176.5 Z"/></g>
<g><path style="opacity:1" fill="#d49657" d="M 219.5,166.5 C 226.148,168.317 230.315,172.65 232,179.5C 233.5,184.667 231.667,186.5 226.5,185C 220.305,180.139 217.972,173.973 219.5,166.5 Z"/></g>
<g><path style="opacity:1" fill="#69b974" d="M 415.5,121.5 C 424.833,121.5 434.167,121.5 443.5,121.5C 444.008,123.233 444.841,123.566 446,122.5C 449.46,123.395 452.127,125.395 454,128.5C 455.406,127.332 456.572,127.665 457.5,129.5C 457.296,128.471 457.796,127.471 459,126.5C 461.639,131.471 465.305,135.471 470,138.5C 471.085,136.343 472.251,136.176 473.5,138C 472.328,138.419 471.328,139.085 470.5,140C 472.275,141.439 474.275,142.439 476.5,143C 475.167,143.667 475.167,144.333 476.5,145C 477.931,145.465 479.097,146.299 480,147.5C 480.71,146.027 481.876,145.36 483.5,145.5C 484.076,148.697 484.409,151.864 484.5,155C 484.39,157.255 483.39,158.922 481.5,160C 483.329,160.273 484.829,161.107 486,162.5C 486.419,161.328 487.085,160.328 488,159.5C 494.112,164.937 499.445,170.937 504,177.5C 504.702,176.205 505.369,174.872 506,173.5C 507.635,175.243 507.802,177.077 506.5,179C 508.272,181.36 509.938,183.86 511.5,186.5C 510.339,188.224 510.505,189.89 512,191.5C 512.623,185.979 513.123,180.646 513.5,175.5C 514.328,180.132 514.828,184.798 515,189.5C 515.333,189.833 515.667,190.167 516,190.5C 516.118,187.629 516.784,184.962 518,182.5C 517.206,184.486 517.706,186.319 519.5,188C 518.198,192.782 518.198,197.615 519.5,202.5C 521.134,202.032 522.3,201.032 523,199.5C 523.499,193.509 523.666,187.509 523.5,181.5C 523.5,178.833 523.5,176.167 523.5,173.5C 524.495,185.322 524.828,197.322 524.5,209.5C 523.834,213.353 523.167,217.353 522.5,221.5C 521.749,220.624 521.249,219.624 521,218.5C 520.667,219.833 520.333,221.167 520,222.5C 518.897,218.644 518.064,214.644 517.5,210.5C 516.682,213.107 516.182,215.774 516,218.5C 515.333,215.167 514.667,211.833 514,208.5C 513.692,209.308 513.192,209.975 512.5,210.5C 509.706,206.869 506.706,203.369 503.5,200C 503.833,199.667 504.167,199.333 504.5,199C 503.437,197.812 502.103,197.312 500.5,197.5C 500.5,196.167 500.5,194.833 500.5,193.5C 498.041,193.69 496.374,192.69 495.5,190.5C 495.737,189.209 495.404,188.209 494.5,187.5C 491.872,172.233 483.206,162.233 468.5,157.5C 468.553,156.18 468.553,154.847 468.5,153.5C 469.98,152.887 471.313,152.554 472.5,152.5C 472,151.5 471.5,150.5 471,149.5C 469.667,146.833 468.333,146.833 467,149.5C 466.667,147.833 466.333,146.167 466,144.5C 463.075,142.286 460.241,139.953 457.5,137.5C 456.833,138.167 456.167,138.833 455.5,139.5C 453.907,137.34 452.24,137.173 450.5,139C 454.277,140.714 454.277,141.381 450.5,141C 448.624,138.954 446.624,137.121 444.5,135.5C 445.325,134.614 446.325,134.281 447.5,134.5C 447.52,132.857 446.853,131.524 445.5,130.5C 447.856,129.346 448.023,128.013 446,126.5C 445.692,127.308 445.192,127.975 444.5,128.5C 443.757,127.092 442.923,125.759 442,124.5C 441.586,124.957 441.086,125.291 440.5,125.5C 438.008,123.819 435.508,123.152 433,123.5C 428.243,124.592 423.576,125.259 419,125.5C 417.313,125.184 416.146,123.85 415.5,121.5 Z"/></g>
<g><path style="opacity:1" fill="#d49555" d="M 277.5,168.5 C 279.783,168.608 281.783,169.441 283.5,171C 286.787,174.293 289.287,178.127 291,182.5C 291.085,192.04 287.752,193.04 281,185.5C 278.612,181.392 276.779,177.059 275.5,172.5C 275.752,170.927 276.418,169.594 277.5,168.5 Z"/></g>
<g><path style="opacity:1" fill="#3e6096" d="M 98.5,175.5 C 100.5,175.833 102.5,176.167 104.5,176.5C 104.244,178.459 103.744,179.793 103,180.5C 104.563,183.044 106.063,183.044 107.5,180.5C 106.911,182.373 107.578,184.04 109.5,185.5C 111.393,186.363 113.56,186.363 116,185.5C 117.267,183.576 117.267,181.91 116,180.5C 115.28,182.255 114.113,183.089 112.5,183C 113.249,181.266 113.749,179.433 114,177.5C 116.172,178.585 118.172,179.919 120,181.5C 120.333,180.5 120.667,179.5 121,178.5C 121.264,182.914 123.431,185.581 127.5,186.5C 127.5,188.5 127.5,190.5 127.5,192.5C 126.686,194.631 126.186,196.964 126,199.5C 125.033,198.322 124.533,196.989 124.5,195.5C 123.5,194.167 122.5,194.167 121.5,195.5C 120.481,194.313 119.314,193.313 118,192.5C 117.177,196.915 116.01,197.248 114.5,193.5C 113.459,195.991 112.626,195.991 112,193.5C 110.684,194.974 109.684,196.641 109,198.5C 107.707,196.714 107.207,195.047 107.5,193.5C 106.772,196.212 105.939,198.879 105,201.5C 104.333,198.833 103.667,198.833 103,201.5C 102.28,199.888 102.446,198.388 103.5,197C 100.644,195.094 98.977,195.927 98.5,199.5C 97.4224,191.659 97.4224,183.659 98.5,175.5 Z"/></g>
<g><path style="opacity:1" fill="#d39655" d="M 250.5,177.5 C 256.603,178.773 260.269,182.606 261.5,189C 260.862,192.293 258.862,193.293 255.5,192C 251.049,187.969 249.382,183.136 250.5,177.5 Z"/></g>
<g><path style="opacity:1" fill="#e0a96f" d="M 352.5,158.5 C 386.469,162.662 417.135,174.828 444.5,195C 455.184,203.012 463.684,212.846 470,224.5C 472.201,229.455 472.534,234.455 471,239.5C 470.167,240.333 469.333,241.167 468.5,242C 453.683,247.704 438.349,251.204 422.5,252.5C 421.577,236.325 416.411,221.658 407,208.5C 391.947,188.26 373.781,171.593 352.5,158.5 Z"/></g>
<g><path style="opacity:1" fill="#d39453" d="M 313.5,193.5 C 320.508,195.513 324.841,200.18 326.5,207.5C 324.065,212.488 320.898,212.821 317,208.5C 313.221,204.02 312.055,199.02 313.5,193.5 Z"/></g>
<g><path style="opacity:1" fill="#3a5897" d="M 127.5,192.5 C 127.5,202.167 127.5,211.833 127.5,221.5C 126.883,221.611 126.383,221.944 126,222.5C 126.077,221.262 125.911,220.262 125.5,219.5C 124.719,220.729 124.219,222.062 124,223.5C 123.121,221.021 121.621,219.021 119.5,217.5C 119.251,218.582 119.085,219.915 119,221.5C 118.558,219.321 117.558,218.655 116,219.5C 116.904,216.974 117.238,214.308 117,211.5C 116.333,210.167 115.667,210.167 115,211.5C 114.085,210.672 113.419,209.672 113,208.5C 112.333,209.833 111.667,209.833 111,208.5C 110.333,209.833 109.667,211.167 109,212.5C 106.517,209.511 103.35,208.178 99.5,208.5C 98.596,209.209 98.2627,210.209 98.5,211.5C 98.0173,207.685 98.0173,203.685 98.5,199.5C 98.977,195.927 100.644,195.094 103.5,197C 102.446,198.388 102.28,199.888 103,201.5C 103.667,198.833 104.333,198.833 105,201.5C 105.939,198.879 106.772,196.212 107.5,193.5C 107.207,195.047 107.707,196.714 109,198.5C 109.684,196.641 110.684,194.974 112,193.5C 112.626,195.991 113.459,195.991 114.5,193.5C 116.01,197.248 117.177,196.915 118,192.5C 119.314,193.313 120.481,194.313 121.5,195.5C 122.5,194.167 123.5,194.167 124.5,195.5C 124.533,196.989 125.033,198.322 126,199.5C 126.186,196.964 126.686,194.631 127.5,192.5 Z"/></g>
<g><path style="opacity:1" fill="#365396" d="M 99.5,208.5 C 103.35,208.178 106.517,209.511 109,212.5C 109.667,211.167 110.333,209.833 111,208.5C 111.667,209.833 112.333,209.833 113,208.5C 113.419,209.672 114.085,210.672 115,211.5C 115.667,210.167 116.333,210.167 117,211.5C 117.238,214.308 116.904,216.974 116,219.5C 117.558,218.655 118.558,219.321 119,221.5C 119.085,219.915 119.251,218.582 119.5,217.5C 121.621,219.021 123.121,221.021 124,223.5C 124.219,222.062 124.719,220.729 125.5,219.5C 125.911,220.262 126.077,221.262 126,222.5C 126.383,221.944 126.883,221.611 127.5,221.5C 127.5,232.167 127.5,242.833 127.5,253.5C 126.691,252.531 125.691,251.698 124.5,251C 125.167,250.667 125.833,250.333 126.5,250C 125.833,247.667 125.167,245.333 124.5,243C 125.833,241.16 125.666,240.66 124,241.5C 123.667,240.5 123.333,239.5 123,238.5C 121.817,239.731 120.651,239.731 119.5,238.5C 120.282,236.671 119.616,235.171 117.5,234C 118.517,232.951 118.684,231.784 118,230.5C 117.174,232.405 116.007,232.739 114.5,231.5C 115.645,230.109 115.645,228.776 114.5,227.5C 113.914,227.709 113.414,228.043 113,228.5C 112.757,226.456 111.59,224.623 109.5,223C 109.905,222.055 110.572,221.388 111.5,221C 109.703,220.769 108.036,219.936 106.5,218.5C 106.64,220.256 106.14,221.922 105,223.5C 104.044,222.421 103.211,221.255 102.5,220C 101.551,219.383 100.718,219.549 100,220.5C 99.5012,216.514 99.3345,212.514 99.5,208.5 Z"/></g>
<g><path style="opacity:1" fill="#64b277" d="M 495.5,190.5 C 496.374,192.69 498.041,193.69 500.5,193.5C 500.5,194.833 500.5,196.167 500.5,197.5C 502.103,197.312 503.437,197.812 504.5,199C 504.167,199.333 503.833,199.667 503.5,200C 506.706,203.369 509.706,206.869 512.5,210.5C 513.192,209.975 513.692,209.308 514,208.5C 514.667,211.833 515.333,215.167 516,218.5C 516.182,215.774 516.682,213.107 517.5,210.5C 518.064,214.644 518.897,218.644 520,222.5C 520.333,221.167 520.667,219.833 521,218.5C 521.249,219.624 521.749,220.624 522.5,221.5C 523.167,217.353 523.834,213.353 524.5,209.5C 524.5,217.833 524.5,226.167 524.5,234.5C 523.957,240.491 523.124,246.491 522,252.5C 520.13,249.769 518.797,246.436 518,242.5C 517.077,243.759 516.243,245.092 515.5,246.5C 515.262,243.029 514.762,239.363 514,235.5C 513.333,236.167 512.667,236.833 512,237.5C 511.482,232.719 510.148,232.386 508,236.5C 507.5,236 507,235.5 506.5,235C 507.517,233.951 507.684,232.784 507,231.5C 505.951,232.517 504.784,232.684 503.5,232C 503.833,231.667 504.167,231.333 504.5,231C 502.5,228.026 500,225.526 497,223.5C 496.79,221.942 496.29,220.609 495.5,219.5C 495.5,209.833 495.5,200.167 495.5,190.5 Z"/></g>
<g><path style="opacity:1" fill="#374f99" d="M 99.5,208.5 C 99.3345,212.514 99.5012,216.514 100,220.5C 100.718,219.549 101.551,219.383 102.5,220C 103.211,221.255 104.044,222.421 105,223.5C 106.14,221.922 106.64,220.256 106.5,218.5C 108.036,219.936 109.703,220.769 111.5,221C 110.572,221.388 109.905,222.055 109.5,223C 111.59,224.623 112.757,226.456 113,228.5C 113.414,228.043 113.914,227.709 114.5,227.5C 115.645,228.776 115.645,230.109 114.5,231.5C 116.007,232.739 117.174,232.405 118,230.5C 118.684,231.784 118.517,232.951 117.5,234C 119.616,235.171 120.282,236.671 119.5,238.5C 120.651,239.731 121.817,239.731 123,238.5C 123.333,239.5 123.667,240.5 124,241.5C 125.666,240.66 125.833,241.16 124.5,243C 125.167,245.333 125.833,247.667 126.5,250C 125.833,250.333 125.167,250.667 124.5,251C 125.691,251.698 126.691,252.531 127.5,253.5C 127.198,256.059 127.532,258.393 128.5,260.5C 132.135,264.307 135.635,268.307 139,272.5C 140.128,274.345 140.628,276.345 140.5,278.5C 139.833,278.5 139.5,278.833 139.5,279.5C 139.167,280.167 138.833,280.833 138.5,281.5C 136.737,284.02 134.737,286.353 132.5,288.5C 131.458,287.209 130.292,287.209 129,288.5C 128.752,284.238 129.252,280.071 130.5,276C 129.809,274.933 129.309,273.766 129,272.5C 128.586,272.957 128.086,273.291 127.5,273.5C 126.772,271.807 125.772,270.307 124.5,269C 123.551,268.383 122.718,268.549 122,269.5C 120.5,267.333 118.667,265.5 116.5,264C 118.007,263.163 118.507,261.996 118,260.5C 112.036,266.103 111.203,265.437 115.5,258.5C 114.397,258.002 113.397,257.669 112.5,257.5C 113.167,256.5 113.833,255.5 114.5,254.5C 113.609,253.41 112.609,253.41 111.5,254.5C 109.371,252.344 107.038,250.677 104.5,249.5C 104.204,246.737 103.204,244.237 101.5,242C 101.833,241.667 102.167,241.333 102.5,241C 101.09,240.632 100.09,239.799 99.5,238.5C 99.8333,235.833 100.167,233.167 100.5,230.5C 99.7435,229.227 99.0768,229.227 98.5,230.5C 97.4169,224.422 97.4169,218.088 98.5,211.5C 98.2627,210.209 98.596,209.209 99.5,208.5 Z"/></g>
<g><path style="opacity:1" fill="#60ab7b" d="M 495.5,219.5 C 496.29,220.609 496.79,221.942 497,223.5C 500,225.526 502.5,228.026 504.5,231C 504.167,231.333 503.833,231.667 503.5,232C 504.784,232.684 505.951,232.517 507,231.5C 507.684,232.784 507.517,233.951 506.5,235C 507,235.5 507.5,236 508,236.5C 510.148,232.386 511.482,232.719 512,237.5C 512.667,236.833 513.333,236.167 514,235.5C 514.762,239.363 515.262,243.029 515.5,246.5C 516.243,245.092 517.077,243.759 518,242.5C 518.797,246.436 520.13,249.769 522,252.5C 523.124,246.491 523.957,240.491 524.5,234.5C 524.5,246.167 524.5,257.833 524.5,269.5C 523.675,273.647 523.175,277.981 523,282.5C 522.667,282.167 522.333,281.833 522,281.5C 522.018,277.641 521.518,273.641 520.5,269.5C 521.485,267.902 521.651,266.235 521,264.5C 520.586,264.957 520.086,265.291 519.5,265.5C 518.676,262.215 518.176,258.882 518,255.5C 516.784,257.962 516.118,260.629 516,263.5C 515.5,263 515,262.5 514.5,262C 514.566,259.133 514.566,256.3 514.5,253.5C 513.64,256.331 512.807,259.331 512,262.5C 511.244,258.668 510.744,255.001 510.5,251.5C 509.422,253.997 507.589,255.663 505,256.5C 504.833,256 504.667,255.5 504.5,255C 505.799,253.674 507.132,252.34 508.5,251C 506.963,249.89 506.297,248.39 506.5,246.5C 505.5,246.5 504.5,246.5 503.5,246.5C 503.344,242.865 502.178,242.532 500,245.5C 500,243.5 500,241.5 500,239.5C 499.035,241.26 497.868,241.594 496.5,240.5C 499.131,238.995 498.797,238.329 495.5,238.5C 495.5,232.167 495.5,225.833 495.5,219.5 Z"/></g>
<g><path style="opacity:1" fill="#ad4435" d="M 313.5,267.5 C 314.94,271.713 316.94,275.713 319.5,279.5C 293.5,275.334 267.833,269.834 242.5,263C 213.202,257.507 183.868,252.34 154.5,247.5C 146.059,246.106 142.392,241.439 143.5,233.5C 146.1,232.794 148.433,233.628 150.5,236C 163.535,239.579 176.702,241.079 190,240.5C 191.826,242.179 193.992,243.346 196.5,244C 207.789,245.831 219.122,247.831 230.5,250C 231.667,250.5 232.5,251.333 233,252.5C 235.401,251.398 237.901,251.231 240.5,252C 264.677,257.869 289.01,263.035 313.5,267.5 Z"/></g>
<g><path style="opacity:1" fill="#82bc98" d="M 494.5,187.5 C 495.404,188.209 495.737,189.209 495.5,190.5C 495.5,200.167 495.5,209.833 495.5,219.5C 495.5,225.833 495.5,232.167 495.5,238.5C 496.132,246.573 495.465,254.24 493.5,261.5C 494.49,236.908 494.823,212.241 494.5,187.5 Z"/></g>
<g><path style="opacity:1" fill="#d06153" d="M 155.5,223.5 C 155.267,228.448 157.601,231.615 162.5,233C 208.436,241.326 254.436,249.326 300.5,257C 304.175,257.557 307.508,258.89 310.5,261C 312.451,262.734 313.451,264.901 313.5,267.5C 289.01,263.035 264.677,257.869 240.5,252C 237.901,251.231 235.401,251.398 233,252.5C 232.5,251.333 231.667,250.5 230.5,250C 219.122,247.831 207.789,245.831 196.5,244C 193.992,243.346 191.826,242.179 190,240.5C 176.702,241.079 163.535,239.579 150.5,236C 148.433,233.628 146.1,232.794 143.5,233.5C 145.964,228.373 149.964,225.04 155.5,223.5 Z"/></g>
<g><path style="opacity:1" fill="#d05e51" d="M 154.5,247.5 C 183.868,252.34 213.202,257.507 242.5,263C 267.833,269.834 293.5,275.334 319.5,279.5C 324.76,284.821 330.76,285.821 337.5,282.5C 364.539,288.4 391.872,290.066 419.5,287.5C 419.67,288.822 419.337,289.989 418.5,291C 419.416,291.374 420.25,291.874 421,292.5C 420.708,287.667 421.875,287.834 424.5,293C 425.766,293.309 426.933,293.809 428,294.5C 427.513,296.044 427.013,297.71 426.5,299.5C 427.833,299.5 429.167,299.5 430.5,299.5C 429.391,300.29 428.058,300.79 426.5,301C 414.84,301.928 403.173,302.761 391.5,303.5C 377.495,302.5 363.495,301.5 349.5,300.5C 332.959,297.427 316.292,294.26 299.5,291C 298.833,290.333 298.167,289.667 297.5,289C 298.451,288.282 298.617,287.449 298,286.5C 297.255,287.99 296.088,288.99 294.5,289.5C 251.51,280.87 208.176,272.37 164.5,264C 158.652,262.833 153.486,260.333 149,256.5C 148.329,257.252 147.496,257.586 146.5,257.5C 148.669,253.754 151.336,250.421 154.5,247.5 Z"/></g>
<g><path style="opacity:1" fill="#5ca67f" d="M 495.5,238.5 C 498.797,238.329 499.131,238.995 496.5,240.5C 497.868,241.594 499.035,241.26 500,239.5C 500,241.5 500,243.5 500,245.5C 502.178,242.532 503.344,242.865 503.5,246.5C 504.5,246.5 505.5,246.5 506.5,246.5C 506.297,248.39 506.963,249.89 508.5,251C 507.132,252.34 505.799,253.674 504.5,255C 504.667,255.5 504.833,256 505,256.5C 507.589,255.663 509.422,253.997 510.5,251.5C 510.744,255.001 511.244,258.668 512,262.5C 512.807,259.331 513.64,256.331 514.5,253.5C 514.566,256.3 514.566,259.133 514.5,262C 515,262.5 515.5,263 516,263.5C 516.118,260.629 516.784,257.962 518,255.5C 518.176,258.882 518.676,262.215 519.5,265.5C 520.086,265.291 520.586,264.957 521,264.5C 521.651,266.235 521.485,267.902 520.5,269.5C 521.518,273.641 522.018,277.641 522,281.5C 522.333,281.833 522.667,282.167 523,282.5C 523.175,277.981 523.675,273.647 524.5,269.5C 524.5,281.167 524.5,292.833 524.5,304.5C 523.043,306.752 521.543,306.419 520,303.5C 519.667,303.833 519.333,304.167 519,304.5C 518.759,301.711 518.092,299.044 517,296.5C 516.333,297.833 515.667,297.833 515,296.5C 514.667,294.167 514.333,291.833 514,289.5C 513.581,290.672 512.915,291.672 512,292.5C 510.121,290.129 508.955,287.462 508.5,284.5C 506.596,282.994 503.929,282.327 500.5,282.5C 500.709,281.914 501.043,281.414 501.5,281C 498.332,280.418 497.999,279.418 500.5,278C 499.874,277.25 499.374,276.416 499,275.5C 497.636,276.258 496.469,275.758 495.5,274C 495.833,273.667 496.167,273.333 496.5,273C 494.064,271.899 491.897,270.399 490,268.5C 489,269.5 488,270.5 487,271.5C 486.536,270.906 486.369,270.239 486.5,269.5C 488.862,266.808 491.196,264.141 493.5,261.5C 495.465,254.24 496.132,246.573 495.5,238.5 Z"/></g>
<g><path style="opacity:1" fill="#e8c441" d="M 466.5,253.5 C 468.953,256.303 469.12,259.303 467,262.5C 459.913,266.149 452.413,268.649 444.5,270C 424.313,273.911 403.98,275.244 383.5,274C 382.058,274.377 381.058,275.21 380.5,276.5C 374.258,279.45 368.258,279.116 362.5,275.5C 359.281,270.139 354.614,268.306 348.5,270C 347.29,271.039 346.29,272.206 345.5,273.5C 343.058,276.729 340.392,279.729 337.5,282.5C 330.76,285.821 324.76,284.821 319.5,279.5C 316.94,275.713 314.94,271.713 313.5,267.5C 313.451,264.901 312.451,262.734 310.5,261C 307.508,258.89 304.175,257.557 300.5,257C 254.436,249.326 208.436,241.326 162.5,233C 157.601,231.615 155.267,228.448 155.5,223.5C 156.392,221.286 158.058,220.286 160.5,220.5C 236.76,234.766 313.094,248.599 389.5,262C 415.677,263.686 441.343,260.853 466.5,253.5 Z"/></g>
<g><path style="opacity:1" fill="#364a9c" d="M 132.5,288.5 C 131.836,290.487 130.669,292.154 129,293.5C 128.5,313.831 128.333,334.164 128.5,354.5C 127.539,352.735 127.205,350.735 127.5,348.5C 127.5,344.833 127.5,341.167 127.5,337.5C 127.5,330.5 127.5,323.5 127.5,316.5C 127.666,309.159 127.5,301.826 127,294.5C 126.465,296.271 125.631,296.604 124.5,295.5C 122.893,290.618 120.56,286.284 117.5,282.5C 115.032,283.75 112.699,283.583 110.5,282C 106.6,278.342 102.6,274.842 98.5,271.5C 97.966,257.692 97.966,244.026 98.5,230.5C 99.0768,229.227 99.7435,229.227 100.5,230.5C 100.167,233.167 99.8333,235.833 99.5,238.5C 100.09,239.799 101.09,240.632 102.5,241C 102.167,241.333 101.833,241.667 101.5,242C 103.204,244.237 104.204,246.737 104.5,249.5C 107.038,250.677 109.371,252.344 111.5,254.5C 112.609,253.41 113.609,253.41 114.5,254.5C 113.833,255.5 113.167,256.5 112.5,257.5C 113.397,257.669 114.397,258.002 115.5,258.5C 111.203,265.437 112.036,266.103 118,260.5C 118.507,261.996 118.007,263.163 116.5,264C 118.667,265.5 120.5,267.333 122,269.5C 122.718,268.549 123.551,268.383 124.5,269C 125.772,270.307 126.772,271.807 127.5,273.5C 128.086,273.291 128.586,272.957 129,272.5C 129.309,273.766 129.809,274.933 130.5,276C 129.252,280.071 128.752,284.238 129,288.5C 130.292,287.209 131.458,287.209 132.5,288.5 Z"/></g>
<g><path style="opacity:1" fill="#59a081" d="M 524.5,304.5 C 524.5,310.167 524.5,315.833 524.5,321.5C 523.918,324.832 523.084,328.166 522,331.5C 521.222,329.416 520.055,327.583 518.5,326C 519.641,325.259 519.641,324.425 518.5,323.5C 515.792,322.422 514.292,320.422 514,317.5C 513.667,318.167 513.333,318.833 513,319.5C 512.044,318.421 511.211,317.255 510.5,316C 511.665,314.132 511.332,312.298 509.5,310.5C 508.149,308.981 506.649,307.648 505,306.5C 501.908,309.282 499.074,308.949 496.5,305.5C 497.364,303.803 498.697,302.637 500.5,302C 499.715,300.457 499.715,298.79 500.5,297C 500.333,296.167 500.167,295.333 500,294.5C 498.374,294.854 496.541,294.854 494.5,294.5C 490.865,290.693 487.365,286.693 484,282.5C 480.554,277.378 481.387,273.045 486.5,269.5C 486.369,270.239 486.536,270.906 487,271.5C 488,270.5 489,269.5 490,268.5C 491.897,270.399 494.064,271.899 496.5,273C 496.167,273.333 495.833,273.667 495.5,274C 496.469,275.758 497.636,276.258 499,275.5C 499.374,276.416 499.874,277.25 500.5,278C 497.999,279.418 498.332,280.418 501.5,281C 501.043,281.414 500.709,281.914 500.5,282.5C 503.929,282.327 506.596,282.994 508.5,284.5C 508.955,287.462 510.121,290.129 512,292.5C 512.915,291.672 513.581,290.672 514,289.5C 514.333,291.833 514.667,294.167 515,296.5C 515.667,297.833 516.333,297.833 517,296.5C 518.092,299.044 518.759,301.711 519,304.5C 519.333,304.167 519.667,303.833 520,303.5C 521.543,306.419 523.043,306.752 524.5,304.5 Z"/></g>
<g><path style="opacity:1" fill="#d16252" d="M 362.5,275.5 C 361.352,276.895 360.352,276.728 359.5,275C 354.844,274.335 350.177,273.835 345.5,273.5C 346.29,272.206 347.29,271.039 348.5,270C 354.614,268.306 359.281,270.139 362.5,275.5 Z"/></g>
<g><path style="opacity:1" fill="#2f419b" d="M 98.5,271.5 C 102.6,274.842 106.6,278.342 110.5,282C 112.699,283.583 115.032,283.75 117.5,282.5C 120.56,286.284 122.893,290.618 124.5,295.5C 125.631,296.604 126.465,296.271 127,294.5C 127.5,301.826 127.666,309.159 127.5,316.5C 125.632,317.757 123.965,317.424 122.5,315.5C 121.749,316.376 121.249,317.376 121,318.5C 119.342,316.677 117.509,315.01 115.5,313.5C 115.112,311.359 115.112,309.359 115.5,307.5C 114.965,305.729 114.131,305.396 113,306.5C 112.508,305.451 112.674,304.451 113.5,303.5C 112.5,302.667 111.5,301.833 110.5,301C 112.402,296.91 111.402,293.743 107.5,291.5C 106.985,293.973 105.485,296.306 103,298.5C 102.349,296.765 102.515,295.098 103.5,293.5C 102.653,292.155 101.487,291.155 100,290.5C 99.5172,289.552 99.3505,288.552 99.5,287.5C 100.978,287.762 102.311,287.429 103.5,286.5C 102.15,285.05 100.484,284.383 98.5,284.5C 98.5,280.167 98.5,275.833 98.5,271.5 Z"/></g>
<g><path style="opacity:1" fill="#d16252" d="M 475.5,260.5 C 471.349,264.815 466.349,267.648 460.5,269C 448.812,271.334 437.146,273.667 425.5,276C 410.438,276.28 395.438,276.447 380.5,276.5C 381.058,275.21 382.058,274.377 383.5,274C 403.98,275.244 424.313,273.911 444.5,270C 452.413,268.649 459.913,266.149 467,262.5C 469.12,259.303 468.953,256.303 466.5,253.5C 466.435,253.062 466.601,252.728 467,252.5C 469.167,254 471.333,255.5 473.5,257C 474.823,257.816 475.489,258.983 475.5,260.5 Z"/></g>
<g><path style="opacity:1" fill="#aa4033" d="M 475.5,260.5 C 477.951,263.568 478.118,266.901 476,270.5C 474.871,272.141 473.371,273.141 471.5,273.5C 470.167,273.5 468.833,273.5 467.5,273.5C 467.719,274.675 467.386,275.675 466.5,276.5C 451.514,282.968 435.848,286.635 419.5,287.5C 391.872,290.066 364.539,288.4 337.5,282.5C 340.392,279.729 343.058,276.729 345.5,273.5C 350.177,273.835 354.844,274.335 359.5,275C 360.352,276.728 361.352,276.895 362.5,275.5C 368.258,279.116 374.258,279.45 380.5,276.5C 395.438,276.447 410.438,276.28 425.5,276C 437.146,273.667 448.812,271.334 460.5,269C 466.349,267.648 471.349,264.815 475.5,260.5 Z"/></g>
<g><path style="opacity:1" fill="#ad4637" d="M 349.5,300.5 C 346.043,300.96 344.377,302.96 344.5,306.5C 346.675,306.682 348.675,307.349 350.5,308.5C 353.886,307.115 354.553,305.281 352.5,303C 352.667,302.5 352.833,302 353,301.5C 353.605,303.481 354.605,303.815 356,302.5C 356.979,304.32 358.479,305.487 360.5,306C 357.964,307.23 355.964,309.063 354.5,311.5C 333.076,308.392 311.743,304.725 290.5,300.5C 252.154,291.792 213.487,283.958 174.5,277C 167.443,275.319 160.443,273.486 153.5,271.5C 149.312,268.973 146.646,265.307 145.5,260.5C 145.685,259.416 146.018,258.416 146.5,257.5C 147.496,257.586 148.329,257.252 149,256.5C 153.486,260.333 158.652,262.833 164.5,264C 208.176,272.37 251.51,280.87 294.5,289.5C 296.088,288.99 297.255,287.99 298,286.5C 298.617,287.449 298.451,288.282 297.5,289C 298.167,289.667 298.833,290.333 299.5,291C 316.292,294.26 332.959,297.427 349.5,300.5 Z"/></g>
<g><path style="opacity:1" fill="#d26454" d="M 471.5,273.5 C 470.942,274.79 469.942,275.623 468.5,276C 470.763,277.617 472.763,279.45 474.5,281.5C 472.31,286.312 468.643,289.812 463.5,292C 459.712,293.15 456.046,294.483 452.5,296C 450.231,296.758 448.064,296.591 446,295.5C 445.097,296.701 443.931,297.535 442.5,298C 438.534,298.828 434.534,299.328 430.5,299.5C 429.167,299.5 427.833,299.5 426.5,299.5C 427.013,297.71 427.513,296.044 428,294.5C 426.933,293.809 425.766,293.309 424.5,293C 421.875,287.834 420.708,287.667 421,292.5C 420.25,291.874 419.416,291.374 418.5,291C 419.337,289.989 419.67,288.822 419.5,287.5C 435.848,286.635 451.514,282.968 466.5,276.5C 467.386,275.675 467.719,274.675 467.5,273.5C 468.833,273.5 470.167,273.5 471.5,273.5 Z"/></g>
<g><path style="opacity:1" fill="#f5c853" d="M 153.5,271.5 C 160.443,273.486 167.443,275.319 174.5,277C 213.487,283.958 252.154,291.792 290.5,300.5C 288.15,301.11 288.483,301.444 291.5,301.5C 291.421,302.93 291.754,304.264 292.5,305.5C 290.833,306.5 289.5,307.833 288.5,309.5C 287.604,308.494 286.938,308.494 286.5,309.5C 288.188,310.521 289.521,311.855 290.5,313.5C 245.234,298.646 198.901,288.646 151.5,283.5C 147.327,282.642 142.993,281.976 138.5,281.5C 138.833,280.833 139.167,280.167 139.5,279.5C 140.167,279.5 140.5,279.167 140.5,278.5C 144.966,276.434 149.299,274.1 153.5,271.5 Z"/></g>
<g><path style="opacity:1" fill="#d15e51" d="M 151.5,283.5 C 198.901,288.646 245.234,298.646 290.5,313.5C 306.262,319.079 321.595,325.413 336.5,332.5C 324.129,330.899 311.796,329.066 299.5,327C 250.064,317.246 200.731,307.246 151.5,297C 149.021,294.33 146.021,292.83 142.5,292.5C 143.895,287.956 146.895,284.956 151.5,283.5 Z"/></g>
<g><path style="opacity:1" fill="#313c9d" d="M 98.5,284.5 C 100.484,284.383 102.15,285.05 103.5,286.5C 102.311,287.429 100.978,287.762 99.5,287.5C 99.3505,288.552 99.5172,289.552 100,290.5C 101.487,291.155 102.653,292.155 103.5,293.5C 102.515,295.098 102.349,296.765 103,298.5C 105.485,296.306 106.985,293.973 107.5,291.5C 111.402,293.743 112.402,296.91 110.5,301C 111.5,301.833 112.5,302.667 113.5,303.5C 112.674,304.451 112.508,305.451 113,306.5C 114.131,305.396 114.965,305.729 115.5,307.5C 115.112,309.359 115.112,311.359 115.5,313.5C 117.509,315.01 119.342,316.677 121,318.5C 121.249,317.376 121.749,316.376 122.5,315.5C 123.965,317.424 125.632,317.757 127.5,316.5C 127.5,323.5 127.5,330.5 127.5,337.5C 123.924,336.515 120.258,335.848 116.5,335.5C 116.719,336.675 116.386,337.675 115.5,338.5C 114.687,335.599 113.687,332.766 112.5,330C 112.905,329.055 113.572,328.388 114.5,328C 112.947,326.903 111.614,325.57 110.5,324C 108.926,323.301 107.593,323.635 106.5,325C 110.239,327.136 110.072,329.303 106,331.5C 104.365,330.274 102.865,328.941 101.5,327.5C 104.118,324.308 103.118,322.975 98.5,323.5C 98.5,324.5 98.5,325.5 98.5,326.5C 97.519,312.853 97.519,298.853 98.5,284.5 Z"/></g>
<g><path style="opacity:1" fill="#a84233" d="M 474.5,281.5 C 477.535,287.293 476.868,292.627 472.5,297.5C 466.29,302.269 459.29,305.436 451.5,307C 419.397,314.891 387.064,316.391 354.5,311.5C 355.964,309.063 357.964,307.23 360.5,306C 358.479,305.487 356.979,304.32 356,302.5C 354.605,303.815 353.605,303.481 353,301.5C 352.833,302 352.667,302.5 352.5,303C 354.553,305.281 353.886,307.115 350.5,308.5C 348.675,307.349 346.675,306.682 344.5,306.5C 344.377,302.96 346.043,300.96 349.5,300.5C 363.495,301.5 377.495,302.5 391.5,303.5C 403.173,302.761 414.84,301.928 426.5,301C 428.058,300.79 429.391,300.29 430.5,299.5C 434.534,299.328 438.534,298.828 442.5,298C 443.931,297.535 445.097,296.701 446,295.5C 448.064,296.591 450.231,296.758 452.5,296C 456.046,294.483 459.712,293.15 463.5,292C 468.643,289.812 472.31,286.312 474.5,281.5 Z"/></g>
<g><path style="opacity:1" fill="#f8cf52" d="M 472.5,297.5 C 476.429,299.133 480.096,301.133 483.5,303.5C 478.321,305.461 472.988,306.795 467.5,307.5C 446.939,312.632 426.939,319.465 407.5,328C 402.113,330.354 397.113,333.188 392.5,336.5C 385.967,339.381 379.967,343.047 374.5,347.5C 372.956,347.703 371.622,348.37 370.5,349.5C 368.68,348.117 366.68,347.117 364.5,346.5C 355.484,341.325 346.151,336.659 336.5,332.5C 321.595,325.413 306.262,319.079 290.5,313.5C 289.521,311.855 288.188,310.521 286.5,309.5C 286.938,308.494 287.604,308.494 288.5,309.5C 289.5,307.833 290.833,306.5 292.5,305.5C 291.754,304.264 291.421,302.93 291.5,301.5C 288.483,301.444 288.15,301.11 290.5,300.5C 311.743,304.725 333.076,308.392 354.5,311.5C 387.064,316.391 419.397,314.891 451.5,307C 459.29,305.436 466.29,302.269 472.5,297.5 Z"/></g>
<g><path style="opacity:1" fill="#569b82" d="M 494.5,295.5 C 494.5,295.167 494.5,294.833 494.5,294.5C 496.541,294.854 498.374,294.854 500,294.5C 500.167,295.333 500.333,296.167 500.5,297C 499.715,298.79 499.715,300.457 500.5,302C 498.697,302.637 497.364,303.803 496.5,305.5C 499.074,308.949 501.908,309.282 505,306.5C 506.649,307.648 508.149,308.981 509.5,310.5C 511.332,312.298 511.665,314.132 510.5,316C 511.211,317.255 512.044,318.421 513,319.5C 513.333,318.833 513.667,318.167 514,317.5C 514.292,320.422 515.792,322.422 518.5,323.5C 519.641,324.425 519.641,325.259 518.5,326C 520.055,327.583 521.222,329.416 522,331.5C 523.084,328.166 523.918,324.832 524.5,321.5C 524.5,326.5 524.5,331.5 524.5,336.5C 523.672,342.653 523.172,348.987 523,355.5C 521.683,354.32 521.516,352.82 522.5,351C 521.907,347.849 521.407,344.682 521,341.5C 519.312,342.325 519.145,343.325 520.5,344.5C 519.726,345.711 518.893,345.711 518,344.5C 518.067,335.354 517.401,335.354 516,344.5C 514.804,338.581 514.138,332.581 514,326.5C 512.187,327.609 511.354,326.942 511.5,324.5C 510.448,324.351 509.448,324.517 508.5,325C 509.179,328.577 509.346,332.411 509,336.5C 506.557,334.152 506.057,331.652 507.5,329C 507.138,327.775 506.638,326.609 506,325.5C 505.667,325.833 505.333,326.167 505,326.5C 504.138,324.913 503.471,323.246 503,321.5C 501.951,322.517 500.784,322.684 499.5,322C 500.337,320.989 500.67,319.822 500.5,318.5C 501.552,318.649 502.552,318.483 503.5,318C 501.709,317.585 500.376,316.585 499.5,315C 498.207,314.51 496.873,314.343 495.5,314.5C 495.823,307.978 495.49,301.645 494.5,295.5 Z"/></g>
<g><path style="opacity:1" fill="#e1ab74" d="M 154.5,319.5 C 233.821,334.801 312.987,349.468 392,363.5C 392.367,369.735 390.7,375.402 387,380.5C 370.538,401.219 349.038,410.052 322.5,407C 284.122,400.791 246.122,392.791 208.5,383C 184.272,375.425 166.106,360.592 154,338.5C 151.346,332.946 150.68,327.279 152,321.5C 152.995,320.934 153.828,320.267 154.5,319.5 Z"/></g>
<g><path style="opacity:1" fill="#2b359e" d="M 127.5,337.5 C 127.5,341.167 127.5,344.833 127.5,348.5C 125.871,347.375 124.371,346.041 123,344.5C 120.496,348.673 118.829,348.34 118,343.5C 117.082,345.632 115.749,346.299 114,345.5C 113.529,347.246 112.862,348.913 112,350.5C 111.5,350 111,349.5 110.5,349C 112.421,347.759 112.754,346.259 111.5,344.5C 109.403,347.053 107.07,349.386 104.5,351.5C 103.571,350.311 103.238,348.978 103.5,347.5C 102.167,347.5 100.833,347.5 99.5,347.5C 99.3398,345.801 99.5065,344.134 100,342.5C 101.943,340.849 103.443,338.849 104.5,336.5C 102.458,336.241 100.458,335.908 98.5,335.5C 98.5,332.5 98.5,329.5 98.5,326.5C 98.5,325.5 98.5,324.5 98.5,323.5C 103.118,322.975 104.118,324.308 101.5,327.5C 102.865,328.941 104.365,330.274 106,331.5C 110.072,329.303 110.239,327.136 106.5,325C 107.593,323.635 108.926,323.301 110.5,324C 111.614,325.57 112.947,326.903 114.5,328C 113.572,328.388 112.905,329.055 112.5,330C 113.687,332.766 114.687,335.599 115.5,338.5C 116.386,337.675 116.719,336.675 116.5,335.5C 120.258,335.848 123.924,336.515 127.5,337.5 Z"/></g>
<g><path style="opacity:1" fill="#ab4437" d="M 142.5,292.5 C 146.021,292.83 149.021,294.33 151.5,297C 200.731,307.246 250.064,317.246 299.5,327C 311.796,329.066 324.129,330.899 336.5,332.5C 346.151,336.659 355.484,341.325 364.5,346.5C 351.064,345.986 337.731,344.486 324.5,342C 270.476,331.795 216.476,321.462 162.5,311C 156.868,309.789 151.534,307.789 146.5,305C 141.838,301.71 140.505,297.543 142.5,292.5 Z"/></g>
<g><path style="opacity:1" fill="#d16251" d="M 467.5,307.5 C 470.228,310.899 472.561,314.566 474.5,318.5C 465.386,324.491 455.386,328.658 444.5,331C 427.315,334.335 409.981,336.169 392.5,336.5C 397.113,333.188 402.113,330.354 407.5,328C 426.939,319.465 446.939,312.632 467.5,307.5 Z"/></g>
<g><path style="opacity:1" fill="#599986" d="M 494.5,295.5 C 495.49,301.645 495.823,307.978 495.5,314.5C 496.873,314.343 498.207,314.51 499.5,315C 500.376,316.585 501.709,317.585 503.5,318C 502.552,318.483 501.552,318.649 500.5,318.5C 500.67,319.822 500.337,320.989 499.5,322C 500.784,322.684 501.951,322.517 503,321.5C 503.471,323.246 504.138,324.913 505,326.5C 505.333,326.167 505.667,325.833 506,325.5C 506.638,326.609 507.138,327.775 507.5,329C 506.057,331.652 506.557,334.152 509,336.5C 509.346,332.411 509.179,328.577 508.5,325C 509.448,324.517 510.448,324.351 511.5,324.5C 511.354,326.942 512.187,327.609 514,326.5C 514.138,332.581 514.804,338.581 516,344.5C 517.401,335.354 518.067,335.354 518,344.5C 518.893,345.711 519.726,345.711 520.5,344.5C 519.145,343.325 519.312,342.325 521,341.5C 521.407,344.682 521.907,347.849 522.5,351C 521.516,352.82 521.683,354.32 523,355.5C 523.172,348.987 523.672,342.653 524.5,336.5C 524.828,347.679 524.495,358.679 523.5,369.5C 523.662,367.473 523.495,365.473 523,363.5C 521.644,364.38 520.144,364.714 518.5,364.5C 519.787,361.57 519.287,359.237 517,357.5C 516.667,358.5 516.333,359.5 516,360.5C 515.727,358.899 515.227,357.399 514.5,356C 514.833,355.667 515.167,355.333 515.5,355C 514.262,355.077 513.262,354.911 512.5,354.5C 513.025,353.808 513.692,353.308 514.5,353C 513.638,350.266 512.805,350.099 512,352.5C 511.5,352 511,351.5 510.5,351C 511.841,347.738 511.508,347.238 509.5,349.5C 505.766,345.103 502.433,340.436 499.5,335.5C 498.5,335.833 497.833,336.5 497.5,337.5C 498.915,340.624 500.915,343.291 503.5,345.5C 503.333,345.833 503.167,346.167 503,346.5C 501.333,345.167 499.667,343.833 498,342.5C 497.581,346.852 496.914,347.185 496,343.5C 495.817,346.365 495.317,349.031 494.5,351.5C 494.5,332.833 494.5,314.167 494.5,295.5 Z"/></g>
<g><path style="opacity:1" fill="#a74335" d="M 474.5,318.5 C 476.146,326.367 473.146,331.867 465.5,335C 436.035,345.142 405.702,349.309 374.5,347.5C 379.967,343.047 385.967,339.381 392.5,336.5C 409.981,336.169 427.315,334.335 444.5,331C 455.386,328.658 465.386,324.491 474.5,318.5 Z"/></g>
<g><path style="opacity:1" fill="#539186" d="M 523.5,369.5 C 523.634,371.292 523.301,372.958 522.5,374.5C 521.178,374.67 520.011,374.337 519,373.5C 515.771,379.585 514.271,378.585 514.5,370.5C 512.027,370.264 510.36,368.931 509.5,366.5C 508.146,368.184 506.479,368.684 504.5,368C 507.3,365.581 507.133,363.414 504,361.5C 500.01,364.073 497.344,362.407 496,356.5C 495.221,359.097 494.721,359.097 494.5,356.5C 494.5,354.833 494.5,353.167 494.5,351.5C 495.317,349.031 495.817,346.365 496,343.5C 496.914,347.185 497.581,346.852 498,342.5C 499.667,343.833 501.333,345.167 503,346.5C 503.167,346.167 503.333,345.833 503.5,345.5C 500.915,343.291 498.915,340.624 497.5,337.5C 497.833,336.5 498.5,335.833 499.5,335.5C 502.433,340.436 505.766,345.103 509.5,349.5C 511.508,347.238 511.841,347.738 510.5,351C 511,351.5 511.5,352 512,352.5C 512.805,350.099 513.638,350.266 514.5,353C 513.692,353.308 513.025,353.808 512.5,354.5C 513.262,354.911 514.262,355.077 515.5,355C 515.167,355.333 514.833,355.667 514.5,356C 515.227,357.399 515.727,358.899 516,360.5C 516.333,359.5 516.667,358.5 517,357.5C 519.287,359.237 519.787,361.57 518.5,364.5C 520.144,364.714 521.644,364.38 523,363.5C 523.495,365.473 523.662,367.473 523.5,369.5 Z"/></g>
<g><path style="opacity:1" fill="#d1914f" d="M 422.5,357.5 C 418.33,377.841 407.664,393.841 390.5,405.5C 384.824,405.666 379.157,405.499 373.5,405C 391.318,394.855 402.652,379.855 407.5,360C 412.364,358.471 417.364,357.638 422.5,357.5 Z"/></g>
<g><path style="opacity:1" fill="#e0a970" d="M 448.5,386.5 C 443.991,388.919 439.658,391.586 435.5,394.5C 432.082,395.639 428.749,396.972 425.5,398.5C 414.178,402.498 402.511,404.831 390.5,405.5C 407.664,393.841 418.33,377.841 422.5,357.5C 437.529,354.701 452.362,351.034 467,346.5C 468.261,346.759 469.261,347.426 470,348.5C 470.667,351.167 470.667,353.833 470,356.5C 468.274,360.953 466.274,365.286 464,369.5C 458.945,375.382 453.779,381.049 448.5,386.5 Z"/></g>
<g><path style="opacity:1" fill="#52908c" d="M 494.5,356.5 C 494.721,359.097 495.221,359.097 496,356.5C 497.344,362.407 500.01,364.073 504,361.5C 507.133,363.414 507.3,365.581 504.5,368C 506.479,368.684 508.146,368.184 509.5,366.5C 510.36,368.931 512.027,370.264 514.5,370.5C 514.271,378.585 515.771,379.585 519,373.5C 520.011,374.337 521.178,374.67 522.5,374.5C 521.179,381.467 518.512,387.8 514.5,393.5C 514.265,392.903 513.765,392.57 513,392.5C 508.976,395.116 505.143,394.782 501.5,391.5C 502.167,391.167 502.833,390.833 503.5,390.5C 502.24,389.618 501.074,388.618 500,387.5C 498.887,388.711 497.72,388.711 496.5,387.5C 495.758,385.892 495.591,384.225 496,382.5C 493.418,381.716 491.751,380.049 491,377.5C 490.667,377.833 490.333,378.167 490,378.5C 489.706,373.441 488.539,373.274 486.5,378C 484.82,377.229 483.153,377.395 481.5,378.5C 484.498,375.333 487.331,372 490,368.5C 491.63,364.429 493.13,360.429 494.5,356.5 Z"/></g>
<g><path style="opacity:1" fill="#2b2fa5" d="M 165.5,420.5 C 161.167,420.5 156.833,420.5 152.5,420.5C 125.45,416.653 108.117,401.653 100.5,375.5C 100.5,374.5 100.5,373.5 100.5,372.5C 102.924,372.808 105.257,372.474 107.5,371.5C 109.845,368.656 112.345,365.99 115,363.5C 115.333,364.5 115.667,365.5 116,366.5C 118.468,365.896 120.468,364.562 122,362.5C 122.556,366.757 123.222,371.09 124,375.5C 124.414,375.043 124.914,374.709 125.5,374.5C 127.988,375.025 130.321,375.858 132.5,377C 130.187,379.939 129.854,383.105 131.5,386.5C 129.61,386.703 128.11,386.037 127,384.5C 126.833,384.833 126.667,385.167 126.5,385.5C 127.82,387.817 129.486,389.817 131.5,391.5C 129.711,392.623 129.378,393.956 130.5,395.5C 131.937,392.956 133.437,392.956 135,395.5C 136.628,394.181 136.461,392.848 134.5,391.5C 134.833,391.167 135.167,390.833 135.5,390.5C 136.524,391.853 137.857,392.52 139.5,392.5C 139.803,395.588 138.47,397.254 135.5,397.5C 135.651,400.718 136.484,401.051 138,398.5C 140.023,400.013 139.856,401.346 137.5,402.5C 139.117,402.669 140.784,403.003 142.5,403.5C 143.95,404.85 144.617,406.516 144.5,408.5C 146.143,408.48 147.476,409.147 148.5,410.5C 149.5,409.833 150.5,409.167 151.5,408.5C 152.5,410 153.5,411.5 154.5,413C 154.167,413.5 153.833,414 153.5,414.5C 152.713,413.758 152.047,412.925 151.5,412C 150.668,411.312 150.002,411.479 149.5,412.5C 150.635,414.799 151.968,416.966 153.5,419C 157.688,419.176 161.688,419.676 165.5,420.5 Z"/></g>
<g><path style="opacity:1" fill="#4e888d" d="M 514.5,393.5 C 511.217,399.783 506.55,404.783 500.5,408.5C 499.283,405.603 497.616,402.936 495.5,400.5C 496.609,399.035 496.109,398.035 494,397.5C 493.692,398.308 493.192,398.975 492.5,399.5C 489.291,395.127 485.291,391.627 480.5,389C 480.833,388.667 481.167,388.333 481.5,388C 479.833,387.667 478.167,387.333 476.5,387C 477.993,385.844 477.826,385.01 476,384.5C 474.437,385.722 472.937,385.722 471.5,384.5C 474.798,382.515 478.131,380.515 481.5,378.5C 483.153,377.395 484.82,377.229 486.5,378C 488.539,373.274 489.706,373.441 490,378.5C 490.333,378.167 490.667,377.833 491,377.5C 491.751,380.049 493.418,381.716 496,382.5C 495.591,384.225 495.758,385.892 496.5,387.5C 497.72,388.711 498.887,388.711 500,387.5C 501.074,388.618 502.24,389.618 503.5,390.5C 502.833,390.833 502.167,391.167 501.5,391.5C 505.143,394.782 508.976,395.116 513,392.5C 513.765,392.57 514.265,392.903 514.5,393.5 Z"/></g>
<g><path style="opacity:1" fill="#497f90" d="M 448.5,386.5 C 453.5,386.5 458.5,386.5 463.5,386.5C 461.479,388.19 461.812,390.023 464.5,392C 464.043,392.414 463.709,392.914 463.5,393.5C 467.161,395.913 470.995,397.913 475,399.5C 475.333,399.167 475.667,398.833 476,398.5C 478.582,400.228 480.082,402.561 480.5,405.5C 483.016,405.755 485.35,406.589 487.5,408C 486.833,408.333 486.167,408.667 485.5,409C 487,409.833 488.167,411 489,412.5C 489.953,410.408 491.286,410.075 493,411.5C 493.219,410.062 493.719,408.729 494.5,407.5C 495.524,408.853 496.857,409.52 498.5,409.5C 490.629,415.686 481.629,419.352 471.5,420.5C 469.708,419.691 467.708,419.191 465.5,419C 464.833,417.667 463.833,416.667 462.5,416C 463.458,414.853 463.125,413.853 461.5,413C 462.449,412.383 463.282,412.549 464,413.5C 464.353,412.328 464.187,411.162 463.5,410C 459.826,405.356 455.493,401.356 450.5,398C 451.833,396.16 451.666,395.66 450,396.5C 449.581,395.328 448.915,394.328 448,393.5C 445.84,396.081 443.674,396.081 441.5,393.5C 439.591,394.348 437.591,394.682 435.5,394.5C 439.658,391.586 443.991,388.919 448.5,386.5 Z"/></g>
<g><path style="opacity:1" fill="#333ea3" d="M 133.5,369.5 C 141.391,380.531 152.225,386.198 166,386.5C 174.147,385.445 182.314,385.279 190.5,386C 195.319,400.641 204.319,411.808 217.5,419.5C 215.052,420.473 212.385,420.806 209.5,420.5C 200.676,419.67 191.676,419.17 182.5,419C 182.833,418 183.167,417 183.5,416C 181.667,415.5 180.5,414.333 180,412.5C 178.701,412.966 177.201,412.966 175.5,412.5C 175.523,410.4 174.856,408.567 173.5,407C 173.759,405.739 174.426,404.739 175.5,404C 173.922,402.86 172.256,402.36 170.5,402.5C 171.5,401.833 172.5,401.167 173.5,400.5C 172.586,398.336 171.419,396.336 170,394.5C 168.951,395.517 167.784,395.684 166.5,395C 166.833,394.667 167.167,394.333 167.5,394C 166.216,393.316 165.049,393.483 164,394.5C 163.311,393.643 162.478,392.977 161.5,392.5C 155.13,393.685 148.797,392.685 142.5,389.5C 141.914,389.709 141.414,390.043 141,390.5C 141.195,388.874 141.195,387.207 141,385.5C 138.91,386.791 137.576,386.124 137,383.5C 135.129,384.668 133.629,384.168 132.5,382C 134.167,380.333 135.833,378.667 137.5,377C 134.603,375.285 133.269,372.785 133.5,369.5 Z"/></g>
<g><path style="opacity:1" fill="#4b8691" d="M 471.5,384.5 C 472.937,385.722 474.437,385.722 476,384.5C 477.826,385.01 477.993,385.844 476.5,387C 478.167,387.333 479.833,387.667 481.5,388C 481.167,388.333 480.833,388.667 480.5,389C 485.291,391.627 489.291,395.127 492.5,399.5C 493.192,398.975 493.692,398.308 494,397.5C 496.109,398.035 496.609,399.035 495.5,400.5C 497.616,402.936 499.283,405.603 500.5,408.5C 500.158,409.338 499.492,409.672 498.5,409.5C 496.857,409.52 495.524,408.853 494.5,407.5C 493.719,408.729 493.219,410.062 493,411.5C 491.286,410.075 489.953,410.408 489,412.5C 488.167,411 487,409.833 485.5,409C 486.167,408.667 486.833,408.333 487.5,408C 485.35,406.589 483.016,405.755 480.5,405.5C 480.082,402.561 478.582,400.228 476,398.5C 475.667,398.833 475.333,399.167 475,399.5C 470.995,397.913 467.161,395.913 463.5,393.5C 463.709,392.914 464.043,392.414 464.5,392C 461.812,390.023 461.479,388.19 463.5,386.5C 465.961,385.469 468.627,384.802 471.5,384.5 Z"/></g>
<g><path style="opacity:1" fill="#467a93" d="M 471.5,420.5 C 470.833,420.5 470.167,420.5 469.5,420.5C 462.5,420.5 455.5,420.5 448.5,420.5C 444.688,419.676 440.688,419.176 436.5,419C 433.833,418.333 433.833,417.667 436.5,417C 435.452,414.8 433.952,414.3 432,415.5C 431.342,413.892 431.842,412.725 433.5,412C 431.797,411.255 430.13,410.421 428.5,409.5C 427.558,409.608 426.725,409.941 426,410.5C 425.125,407.785 423.292,406.452 420.5,406.5C 422.167,403.833 423.833,401.167 425.5,398.5C 428.749,396.972 432.082,395.639 435.5,394.5C 437.591,394.682 439.591,394.348 441.5,393.5C 443.674,396.081 445.84,396.081 448,393.5C 448.915,394.328 449.581,395.328 450,396.5C 451.666,395.66 451.833,396.16 450.5,398C 455.493,401.356 459.826,405.356 463.5,410C 464.187,411.162 464.353,412.328 464,413.5C 463.282,412.549 462.449,412.383 461.5,413C 463.125,413.853 463.458,414.853 462.5,416C 463.833,416.667 464.833,417.667 465.5,419C 467.708,419.191 469.708,419.691 471.5,420.5 Z"/></g>
<g><path style="opacity:1" fill="#2b33a2" d="M 98.5,335.5 C 100.458,335.908 102.458,336.241 104.5,336.5C 103.443,338.849 101.943,340.849 100,342.5C 99.5065,344.134 99.3398,345.801 99.5,347.5C 100.833,347.5 102.167,347.5 103.5,347.5C 103.238,348.978 103.571,350.311 104.5,351.5C 107.07,349.386 109.403,347.053 111.5,344.5C 112.754,346.259 112.421,347.759 110.5,349C 111,349.5 111.5,350 112,350.5C 112.862,348.913 113.529,347.246 114,345.5C 115.749,346.299 117.082,345.632 118,343.5C 118.829,348.34 120.496,348.673 123,344.5C 124.371,346.041 125.871,347.375 127.5,348.5C 127.205,350.735 127.539,352.735 128.5,354.5C 129.317,359.797 130.984,364.797 133.5,369.5C 133.269,372.785 134.603,375.285 137.5,377C 135.833,378.667 134.167,380.333 132.5,382C 133.629,384.168 135.129,384.668 137,383.5C 137.576,386.124 138.91,386.791 141,385.5C 141.195,387.207 141.195,388.874 141,390.5C 141.414,390.043 141.914,389.709 142.5,389.5C 148.797,392.685 155.13,393.685 161.5,392.5C 162.478,392.977 163.311,393.643 164,394.5C 165.049,393.483 166.216,393.316 167.5,394C 167.167,394.333 166.833,394.667 166.5,395C 167.784,395.684 168.951,395.517 170,394.5C 171.419,396.336 172.586,398.336 173.5,400.5C 172.5,401.167 171.5,401.833 170.5,402.5C 172.256,402.36 173.922,402.86 175.5,404C 174.426,404.739 173.759,405.739 173.5,407C 174.856,408.567 175.523,410.4 175.5,412.5C 177.201,412.966 178.701,412.966 180,412.5C 180.5,414.333 181.667,415.5 183.5,416C 183.167,417 182.833,418 182.5,419C 191.676,419.17 200.676,419.67 209.5,420.5C 194.833,420.5 180.167,420.5 165.5,420.5C 161.688,419.676 157.688,419.176 153.5,419C 151.968,416.966 150.635,414.799 149.5,412.5C 150.002,411.479 150.668,411.312 151.5,412C 152.047,412.925 152.713,413.758 153.5,414.5C 153.833,414 154.167,413.5 154.5,413C 153.5,411.5 152.5,410 151.5,408.5C 150.5,409.167 149.5,409.833 148.5,410.5C 147.476,409.147 146.143,408.48 144.5,408.5C 144.617,406.516 143.95,404.85 142.5,403.5C 140.784,403.003 139.117,402.669 137.5,402.5C 139.856,401.346 140.023,400.013 138,398.5C 136.484,401.051 135.651,400.718 135.5,397.5C 138.47,397.254 139.803,395.588 139.5,392.5C 137.857,392.52 136.524,391.853 135.5,390.5C 135.167,390.833 134.833,391.167 134.5,391.5C 136.461,392.848 136.628,394.181 135,395.5C 133.437,392.956 131.937,392.956 130.5,395.5C 129.378,393.956 129.711,392.623 131.5,391.5C 129.486,389.817 127.82,387.817 126.5,385.5C 126.667,385.167 126.833,384.833 127,384.5C 128.11,386.037 129.61,386.703 131.5,386.5C 129.854,383.105 130.187,379.939 132.5,377C 130.321,375.858 127.988,375.025 125.5,374.5C 124.914,374.709 124.414,375.043 124,375.5C 123.222,371.09 122.556,366.757 122,362.5C 120.468,364.562 118.468,365.896 116,366.5C 115.667,365.5 115.333,364.5 115,363.5C 112.345,365.99 109.845,368.656 107.5,371.5C 105.257,372.474 102.924,372.808 100.5,372.5C 100.5,373.5 100.5,374.5 100.5,375.5C 98.9847,367.16 97.9847,358.66 97.5,350C 97.9254,345.351 98.2587,340.518 98.5,335.5 Z"/></g>
<g><path style="opacity:1" fill="#427295" d="M 420.5,406.5 C 423.292,406.452 425.125,407.785 426,410.5C 426.725,409.941 427.558,409.608 428.5,409.5C 430.13,410.421 431.797,411.255 433.5,412C 431.842,412.725 431.342,413.892 432,415.5C 433.952,414.3 435.452,414.8 436.5,417C 433.833,417.667 433.833,418.333 436.5,419C 440.688,419.176 444.688,419.676 448.5,420.5C 433.657,420.829 418.99,420.496 404.5,419.5C 410.463,415.864 415.796,411.53 420.5,406.5 Z"/></g>
<g><path style="opacity:1" fill="#5c66b7" d="M 217.5,419.5 C 218.289,419.783 218.956,420.283 219.5,421C 196.996,421.83 174.663,421.663 152.5,420.5C 156.833,420.5 161.167,420.5 165.5,420.5C 180.167,420.5 194.833,420.5 209.5,420.5C 212.385,420.806 215.052,420.473 217.5,419.5 Z"/></g>
<g><path style="opacity:1" fill="#6790a8" d="M 404.5,419.5 C 418.99,420.496 433.657,420.829 448.5,420.5C 455.5,420.5 462.5,420.5 469.5,420.5C 447.337,421.663 425.004,421.83 402.5,421C 403.044,420.283 403.711,419.783 404.5,419.5 Z"/></g>
<g><path style="opacity:1" fill="#394349" d="M 425.5,490.5 C 425.44,489.957 425.107,489.624 424.5,489.5C 423.501,499.812 423.168,510.145 423.5,520.5C 419.122,520.629 414.955,520.629 411,520.5C 410.5,502.17 410.333,483.836 410.5,465.5C 415.214,465.173 419.88,465.507 424.5,466.5C 430.163,477.164 436.33,487.497 443,497.5C 449.252,487.33 455.252,476.997 461,466.5C 465.401,465.533 469.901,465.2 474.5,465.5C 474.5,483.833 474.5,502.167 474.5,520.5C 470.303,520.682 466.303,521.015 462.5,521.5C 461.668,510.849 461.168,500.182 461,489.5C 456.167,497.833 451.333,506.167 446.5,514.5C 443.833,515.833 441.167,515.833 438.5,514.5C 434.142,506.446 429.808,498.446 425.5,490.5 Z"/></g>
<g><path style="opacity:1" fill="#39434a" d="M 487.5,465.5 C 492.167,465.5 496.833,465.5 501.5,465.5C 501.833,483.845 501.5,502.179 500.5,520.5C 496.203,521.463 491.87,521.463 487.5,520.5C 487.5,502.167 487.5,483.833 487.5,465.5 Z"/></g>
<g><path style="opacity:1" fill="#374048" d="M 57.5,460.5 C 59.5441,461.031 61.2107,462.198 62.5,464C 75.7867,465.237 89.1201,465.904 102.5,466C 113.577,468.076 119.244,474.743 119.5,486C 118.907,496.264 113.573,502.598 103.5,505C 100.475,505.361 97.4748,505.861 94.5,506.5C 91.2169,505.673 87.8835,505.34 84.5,505.5C 84.5,510.5 84.5,515.5 84.5,520.5C 79.8333,520.5 75.1667,520.5 70.5,520.5C 70.8326,505.818 70.4993,491.152 69.5,476.5C 60.667,474.847 56.667,469.513 57.5,460.5 Z M 84.5,476.5 C 90.987,475.883 97.1536,476.883 103,479.5C 106.16,484.374 105.66,488.874 101.5,493C 95.9284,494.351 90.2617,494.851 84.5,494.5C 84.5,488.5 84.5,482.5 84.5,476.5 Z"/></g>
<g><path style="opacity:1" fill="#3a4248" d="M 274.5,464.5 C 277.119,464.232 279.619,464.565 282,465.5C 282.499,469.152 282.665,472.818 282.5,476.5C 276.5,476.5 270.5,476.5 264.5,476.5C 264.5,491.167 264.5,505.833 264.5,520.5C 259.489,520.666 254.489,520.499 249.5,520C 249.667,505.591 249.667,491.091 249.5,476.5C 243.833,476.5 238.167,476.5 232.5,476.5C 232.5,472.833 232.5,469.167 232.5,465.5C 246.677,465.829 260.677,465.496 274.5,464.5 Z"/></g>
<g><path style="opacity:1" fill="#6db1a4" d="M 553.5,462.5 C 552.609,463.11 551.609,463.443 550.5,463.5C 549.5,463.5 548.5,463.5 547.5,463.5C 547.5,464.5 547.5,465.5 547.5,466.5C 548.209,467.404 549.209,467.737 550.5,467.5C 550.67,468.822 550.337,469.989 549.5,471C 552.144,473.017 555.144,473.85 558.5,473.5C 551.308,474.743 543.975,474.743 536.5,473.5C 535.278,468.263 537.278,465.263 542.5,464.5C 545.513,459.125 549.18,458.458 553.5,462.5 Z"/></g>
<g><path style="opacity:1" fill="#60b890" d="M 553.5,462.5 C 554.687,464.975 556.687,465.975 559.5,465.5C 559.806,468.385 559.473,471.052 558.5,473.5C 555.144,473.85 552.144,473.017 549.5,471C 550.337,469.989 550.67,468.822 550.5,467.5C 549.209,467.737 548.209,467.404 547.5,466.5C 548.5,466.5 549.5,466.5 550.5,466.5C 550.5,465.5 550.5,464.5 550.5,463.5C 551.609,463.443 552.609,463.11 553.5,462.5 Z"/></g>
<g><path style="opacity:1" fill="#73c778" d="M 562.5,468.5 C 565.365,468.055 567.865,468.722 570,470.5C 570.5,476.825 570.666,483.158 570.5,489.5C 569.178,489.67 568.011,489.337 567,488.5C 566.501,483.177 566.334,477.844 566.5,472.5C 565.167,472.5 563.833,472.5 562.5,472.5C 562.5,471.167 562.5,469.833 562.5,468.5 Z"/></g>
<g><path style="opacity:1" fill="#619b99" d="M 545.5,481.5 C 545.918,482.222 546.584,482.722 547.5,483C 546.263,483.232 545.263,483.732 544.5,484.5C 540.685,485.082 537.351,484.248 534.5,482C 538.152,481.501 541.818,481.335 545.5,481.5 Z"/></g>
<g><path style="opacity:1" fill="#61b088" d="M 545.5,481.5 C 551.167,481.5 556.833,481.5 562.5,481.5C 562.5,482.5 562.5,483.5 562.5,484.5C 556.5,484.5 550.5,484.5 544.5,484.5C 545.263,483.732 546.263,483.232 547.5,483C 546.584,482.722 545.918,482.222 545.5,481.5 Z"/></g>
<g><path style="opacity:1" fill="#3a4249" d="M 199.5,464.5 C 205.509,464.334 211.509,464.501 217.5,465C 221.552,465.627 225.218,467.127 228.5,469.5C 227,473.167 225.5,476.833 224,480.5C 216.923,476.35 209.423,475.183 201.5,477C 197.776,480.645 198.443,483.645 203.5,486C 210.362,487.382 217.028,489.382 223.5,492C 231.192,498.324 232.359,505.824 227,514.5C 221.056,519.707 214.056,522.374 206,522.5C 200.911,521.93 195.911,520.93 191,519.5C 188.073,518.623 185.573,517.123 183.5,515C 184.805,511.418 186.305,507.918 188,504.5C 195.038,509.551 202.871,511.384 211.5,510C 215.795,508.155 216.462,505.488 213.5,502C 205.716,499.708 198.049,497.041 190.5,494C 183.902,487.826 182.736,480.659 187,472.5C 190.367,468.41 194.533,465.744 199.5,464.5 Z"/></g>
<g><path style="opacity:1" fill="#374047" d="M 155.5,464.5 C 157.173,465.343 158.34,466.676 159,468.5C 166.519,486.199 174.019,503.865 181.5,521.5C 176.401,521.825 171.401,521.325 166.5,520C 164.74,516.649 163.406,513.149 162.5,509.5C 154.457,509.565 146.623,509.565 139,509.5C 136.707,513.252 134.54,517.086 132.5,521C 128.179,521.499 123.846,521.666 119.5,521.5C 126.311,502.87 133.977,484.537 142.5,466.5C 146.982,465.833 151.316,465.166 155.5,464.5 Z M 156.5,497.5 C 152.5,498.167 148.5,498.833 144.5,499.5C 143.711,499.217 143.044,498.717 142.5,498C 144.854,492.124 147.354,486.29 150,480.5C 152.468,486.073 154.635,491.74 156.5,497.5 Z"/></g>
<g><path style="opacity:1" fill="#364046" d="M 365.5,465.5 C 370.762,465.195 375.928,465.529 381,466.5C 388.971,484.275 396.804,502.108 404.5,520C 404.167,520.5 403.833,521 403.5,521.5C 398.849,520.884 394.182,520.218 389.5,519.5C 388.167,516.5 386.833,513.5 385.5,510.5C 377.521,509.335 369.521,509.168 361.5,510C 359.618,512.978 358.118,516.145 357,519.5C 355.667,520.167 354.333,520.833 353,521.5C 349.744,521.402 346.41,521.068 343,520.5C 349.985,502.066 357.485,483.733 365.5,465.5 Z M 372.5,480.5 C 375.624,486.003 378.291,491.836 380.5,498C 376.113,498.226 371.779,498.726 367.5,499.5C 366.386,498.277 366.219,496.944 367,495.5C 369.336,490.657 371.169,485.657 372.5,480.5 Z"/></g>
<g><path style="opacity:1" fill="#70aa9d" d="M 535.5,488.5 C 542.508,488.334 549.508,488.5 556.5,489C 557.337,490.011 557.67,491.178 557.5,492.5C 550.167,492.5 542.833,492.5 535.5,492.5C 535.5,491.167 535.5,489.833 535.5,488.5 Z"/></g>
<g><path style="opacity:1" fill="#3c454b" d="M 288.5,465.5 C 299.838,465.333 311.172,465.5 322.5,466C 336.123,470.41 340.957,479.576 337,493.5C 335.167,498 332,501.167 327.5,503C 331.5,508.667 335.5,514.333 339.5,520C 339.167,520.333 338.833,520.667 338.5,521C 333.527,520.389 328.86,520.389 324.5,521C 320.774,516.272 317.441,511.272 314.5,506C 310.848,505.501 307.182,505.335 303.5,505.5C 303.5,510.5 303.5,515.5 303.5,520.5C 298.621,521.69 293.787,521.69 289,520.5C 288.5,502.17 288.333,483.836 288.5,465.5 Z M 303.5,476.5 C 309.732,475.939 315.732,476.772 321.5,479C 325.692,486.642 323.692,491.642 315.5,494C 311.833,494.667 308.167,494.667 304.5,494C 303.525,488.259 303.192,482.425 303.5,476.5 Z"/></g>
<g><path style="opacity:0.267" fill="#a3a8a9" d="M 156.5,497.5 C 157.043,497.56 157.376,497.893 157.5,498.5C 153.217,499.492 148.884,499.826 144.5,499.5C 148.5,498.833 152.5,498.167 156.5,497.5 Z"/></g>
<g><path style="opacity:1" fill="#63a29a" d="M 535.5,496.5 C 540.833,496.5 546.167,496.5 551.5,496.5C 551.67,497.822 551.337,498.989 550.5,500C 545.511,500.499 540.511,500.666 535.5,500.5C 535.5,499.167 535.5,497.833 535.5,496.5 Z"/></g>
<g><path style="opacity:1" fill="#686c72" d="M 425.5,490.5 C 424.833,500.5 424.167,510.5 423.5,520.5C 423.168,510.145 423.501,499.812 424.5,489.5C 425.107,489.624 425.44,489.957 425.5,490.5 Z"/></g>
<g><path style="opacity:1" fill="#50929b" d="M 535.5,504.5 C 540.214,504.173 544.88,504.507 549.5,505.5C 549.291,506.086 548.957,506.586 548.5,507C 544.179,507.499 539.846,507.666 535.5,507.5C 535.5,506.5 535.5,505.5 535.5,504.5 Z"/></g>
<g><path style="opacity:1" fill="#60b77a" d="M 563.5,492.5 C 577.146,491.646 582.979,497.979 581,511.5C 576.401,520.352 569.568,522.852 560.5,519C 550.552,508.863 551.552,500.03 563.5,492.5 Z M 564.5,495.5 C 577.092,495.923 580.925,501.923 576,513.5C 566.726,520.126 560.226,517.959 556.5,507C 557.436,501.908 560.102,498.075 564.5,495.5 Z"/></g>
<g><path style="opacity:1" fill="#64bd7c" d="M 567.5,498.5 C 569.094,501.061 570.094,504.061 570.5,507.5C 571.167,506.833 571.833,506.167 572.5,505.5C 573.597,509.281 572.097,511.614 568,512.5C 564.428,511.163 562.928,508.829 563.5,505.5C 564.478,505.977 565.311,506.643 566,507.5C 566.259,504.413 566.759,501.413 567.5,498.5 Z"/></g>
<g><path style="opacity:1" fill="#5592ae" d="M 553.5,517.5 C 553.473,519.199 552.806,520.533 551.5,521.5C 543.826,521.666 536.159,521.5 528.5,521C 528,520.5 527.5,520 527,519.5C 526.333,502.833 526.333,486.167 527,469.5C 529.934,466.761 532.434,466.927 534.5,470C 533.968,472.02 532.635,472.853 530.5,472.5C 530.333,487.17 530.5,501.837 531,516.5C 538.413,517.481 545.913,517.814 553.5,517.5 Z"/></g>
<g><path style="opacity:1" fill="#5eaea2" d="M 553.5,517.5 C 555.384,517.712 556.717,518.712 557.5,520.5C 555.604,521.466 553.604,521.799 551.5,521.5C 552.806,520.533 553.473,519.199 553.5,517.5 Z"/></g>
</svg>
